# This file uses centimeters as units for non-parametric coordinates.

mtllib sixbg2.mtl
g default
v 43.702614 0.604080 -75.695099
v -43.702579 0.604080 -75.695114
v -87.405159 0.604080 -0.000026
v -43.702602 0.604080 75.695107
v 43.702591 0.604080 75.695107
v 87.405182 0.604080 0.000005
v 43.702614 85.249870 -75.695099
v -43.702579 85.249870 -75.695114
v -87.405159 85.249870 -0.000026
v -43.702602 85.249870 75.695107
v 43.702591 85.249870 75.695107
v 87.405182 85.249870 0.000005
v 0.000000 0.604080 0.000005
v 39.191261 85.490898 -67.881195
v -39.191216 85.490898 -67.881210
v -78.382454 85.490898 -0.000005
v -39.191238 85.490898 67.881203
v 39.191235 85.490898 67.881203
v 78.382477 85.490898 0.000005
v 39.191261 13.350553 -67.881195
v -39.191216 13.350553 -67.881248
v 0.000000 13.350578 -0.000005
v -78.382454 13.350553 -0.000036
v -39.191238 13.350553 67.881187
v 39.191235 13.350553 67.881203
v 78.382477 13.350553 0.000037
v 40.824196 82.485054 65.052849
v 76.749519 82.485054 2.828371
v 76.749519 16.356400 2.828402
v 40.824196 16.356400 65.052849
v 49.688091 82.485054 49.700161
v 67.885643 82.485054 18.181017
v 67.885643 16.356400 18.181061
v 49.688091 16.356388 49.700161
v 49.688087 82.485054 49.700157
v 67.885635 82.485054 18.181013
v 67.885635 16.356400 18.181055
v 49.688087 16.356388 49.700157
vt 0.578125 0.020934
vt 0.421875 0.020934
vt 0.343750 0.156250
vt 0.421875 0.291566
vt 0.578125 0.291566
vt 0.656250 0.156250
vt 0.375000 0.312500
vt 0.416667 0.312500
vt 0.458333 0.312500
vt 0.500000 0.312500
vt 0.541667 0.312500
vt 0.583333 0.312500
vt 0.625000 0.312500
vt 0.375000 0.688440
vt 0.416667 0.688440
vt 0.458333 0.688440
vt 0.500000 0.688440
vt 0.541667 0.688440
vt 0.583333 0.688440
vt 0.625000 0.688440
vt 0.578125 0.708434
vt 0.421875 0.708434
vt 0.343750 0.843750
vt 0.421875 0.979066
vt 0.578125 0.979066
vt 0.656250 0.843750
vt 0.500000 0.150000
vt 0.500000 0.837500
vt 0.578125 0.979066
vt 0.421875 0.979066
vt 0.343750 0.843750
vt 0.421875 0.708434
vt 0.578125 0.708434
vt 0.656250 0.843750
vt 0.578125 0.979066
vt 0.421875 0.979066
vt 0.343750 0.843750
vt 0.421875 0.708434
vt 0.578125 0.708434
vt 0.656250 0.843750
vt 0.578125 0.708434
vt 0.656250 0.843750
vt 0.656250 0.843750
vt 0.578125 0.708434
vt 0.578125 0.708434
vt 0.656250 0.843750
vt 0.656250 0.843750
vt 0.578125 0.708434
vt 0.578125 0.708434
vt 0.656250 0.843750
vt 0.656250 0.843750
vt 0.578125 0.708434
vn 0.000000 0.000000 -1.000000
vn 0.000000 0.000000 -1.000000
vn 0.000000 0.000000 -1.000000
vn 0.000000 0.000000 -1.000000
vn -0.866025 0.000000 -0.500000
vn -0.866025 0.000000 -0.500000
vn -0.866025 0.000000 -0.500000
vn -0.866025 0.000000 -0.500000
vn -0.866026 0.000000 0.500000
vn -0.866026 0.000000 0.500000
vn -0.866026 0.000000 0.500000
vn -0.866026 0.000000 0.500000
vn 0.000000 0.000000 1.000000
vn 0.000000 0.000000 1.000000
vn 0.000000 0.000000 1.000000
vn 0.000000 0.000000 1.000000
vn 0.866025 0.000000 0.500000
vn 0.866025 0.000000 0.500000
vn 0.866025 0.000000 0.500000
vn 0.866025 0.000000 0.500000
vn 0.866026 0.000000 -0.500000
vn 0.866026 0.000000 -0.500000
vn 0.866026 0.000000 -0.500000
vn 0.866026 0.000000 -0.500000
vn 0.000000 -1.000000 -0.000000
vn 0.000000 -1.000000 0.000000
vn 0.000000 -1.000000 0.000000
vn 0.000000 -1.000000 0.000000
vn 0.000000 -1.000000 0.000000
vn 0.000000 -1.000000 0.000000
vn 0.000000 -1.000000 0.000000
vn 0.000000 1.000000 -0.000000
vn -0.000000 1.000000 -0.000000
vn -0.000000 1.000000 0.000000
vn -0.000000 1.000000 0.000000
vn -0.000000 1.000000 0.000000
vn 0.000000 1.000000 0.000000
vn 0.000000 1.000000 0.000000
vn 0.013352 0.999643 -0.023126
vn -0.013352 0.999644 -0.023126
vn -0.013352 0.999644 -0.023126
vn 0.013352 0.999643 -0.023126
vn -0.026704 0.999643 0.000000
vn -0.026704 0.999643 0.000000
vn -0.013352 0.999643 0.023126
vn -0.013352 0.999643 0.023126
vn 0.013352 0.999643 0.023126
vn 0.013352 0.999643 0.023126
vn 0.026704 0.999643 -0.000000
vn 0.026704 0.999643 -0.000000
vn -0.000000 -0.000000 1.000000
vn -0.000000 -0.000000 1.000000
vn -0.000000 -0.000000 1.000000
vn -0.000000 -0.000000 1.000000
vn 0.866025 -0.000000 0.500000
vn 0.866025 -0.000000 0.500000
vn 0.866025 -0.000000 0.500000
vn 0.866025 -0.000000 0.500000
vn 0.866026 0.000000 -0.500000
vn 0.866026 0.000000 -0.500000
vn 0.866026 0.000000 -0.500000
vn 0.866026 0.000000 -0.500000
vn 0.000000 0.000000 -1.000000
vn 0.000000 0.000000 -1.000000
vn 0.000000 0.000000 -1.000000
vn 0.000000 0.000000 -1.000000
vn -0.866026 -0.000000 -0.499999
vn -0.866026 -0.000000 -0.500000
vn -0.866026 -0.000000 -0.499999
vn -0.866026 -0.000000 -0.500000
vn -0.866026 0.000000 0.500000
vn -0.866026 0.000000 0.500000
vn -0.866026 0.000000 0.500000
vn -0.866026 0.000000 0.500000
vn -0.866025 -0.000001 -0.500002
vn -0.866025 -0.000001 -0.500000
vn -0.866025 -0.000001 -0.500001
vn -0.866025 -0.000000 -0.500001
vn -0.866025 0.000000 -0.500000
vn -0.866025 -0.000000 -0.500001
vn -0.866024 0.000000 -0.500002
vn -0.866025 0.000000 -0.500001
vn 0.000000 0.000000 -0.000000
vn 0.000000 0.000000 -0.000000
vn 0.000000 0.928477 -0.371391
vn 0.000000 0.928477 -0.371391
vn -0.866025 -0.000000 -0.500001
vn -0.866025 -0.000000 -0.500001
vn 0.700867 0.637988 0.318994
vn 0.000000 0.000000 0.000000
vn 0.700867 0.637988 0.318994
vn 0.700867 0.637988 0.318994
vn -0.866025 0.000000 -0.500001
vn -0.866025 0.000000 -0.500001
vn 0.000000 0.959959 0.280140
vn 0.000000 0.959959 0.280140
vn 0.000000 0.959959 0.280140
vn 0.000000 0.959959 0.280140
vn 0.435586 -0.000001 -0.900147
vn 0.435586 -0.000001 -0.900147
vn 0.435586 -0.000001 -0.900147
vn 0.435586 -0.000001 -0.900147
vn 0.000001 -0.999822 -0.018840
vn 0.000001 -0.999822 -0.018840
vn 0.000001 -0.999822 -0.018840
vn 0.000001 -0.999822 -0.018840
vn -0.695447 0.000000 0.718578
vn -0.695447 0.000000 0.718578
vn -0.695447 0.000000 0.718578
vn -0.695447 0.000000 0.718578
s off
g pCylinder5
usemtl initialShadingGroup
f 1/7/1 2/8/2 8/15/3 7/14/4
f 2/8/5 3/9/6 9/16/7 8/15/8
f 3/9/9 4/10/10 10/17/11 9/16/12
f 4/10/13 5/11/14 11/18/15 10/17/16
f 5/11/17 6/12/18 12/19/19 11/18/20
f 6/12/21 1/13/22 7/20/23 12/19/24
s 1
f 2/2/25 1/1/26 13/27/27
f 3/3/28 2/2/25 13/27/27
f 4/4/29 3/3/28 13/27/27
f 5/5/30 4/4/29 13/27/27
f 6/6/31 5/5/30 13/27/27
f 1/1/26 6/6/31 13/27/27
s 2
f 20/35/32 21/36/33 22/28/34
f 21/36/33 23/37/35 22/28/34
f 23/37/35 24/38/36 22/28/34
f 24/38/36 25/39/37 22/28/34
f 25/39/37 26/40/38 22/28/34
f 26/40/38 20/35/32 22/28/34
s 3
f 7/25/39 8/24/40 15/30/41 14/29/42
f 8/24/40 9/23/43 16/31/44 15/30/41
f 9/23/43 10/22/45 17/32/46 16/31/44
f 10/22/45 11/21/47 18/33/48 17/32/46
f 11/21/47 12/26/49 19/34/50 18/33/48
f 12/26/49 7/25/39 14/29/42 19/34/50
s off
f 14/29/51 15/30/52 21/36/53 20/35/54
f 15/30/55 16/31/56 23/37/57 21/36/58
f 16/31/59 17/32/60 24/38/61 23/37/62
f 17/32/63 18/33/64 25/39/65 24/38/66
f 35/49/67 36/50/68 37/51/69 38/52/70
f 19/34/71 14/29/72 20/35/73 26/40/74
s 4
f 18/33/75 19/34/76 28/42/77 27/41/78
f 19/34/76 26/40/79 29/43/80 28/42/77
f 26/40/79 25/39/81 30/44/82 29/43/80
f 25/39/81 18/33/75 27/41/78 30/44/82
s off
f 27/41/83 28/42/84 32/46/85 31/45/86
s 4
f 28/42/77 29/43/80 33/47/87 32/46/88
s off
f 29/43/89 30/44/90 34/48/91 33/47/92
s 4
f 30/44/82 27/41/78 31/45/93 34/48/94
s off
f 31/45/95 32/46/96 36/50/97 35/49/98
f 32/46/99 33/47/100 37/51/101 36/50/102
f 33/47/103 34/48/104 38/52/105 37/51/106
f 34/48/107 31/45/108 35/49/109 38/52/110
